<svg xmlns="http://www.w3.org/2000/svg" width="1600" height="900" viewBox="0 0 1600 900">
  <defs>
    <linearGradient id="bg" x1="0" x2="1" y1="0" y2="1"><stop offset="0" stop-color="#071612"/><stop offset="0.55" stop-color="#0b211c"/><stop offset="1" stop-color="#1d2315"/></linearGradient>
    <radialGradient id="glowA" cx="75%" cy="22%" r="55%"><stop offset="0" stop-color="#20b486" stop-opacity="0.36"/><stop offset="1" stop-color="#20b486" stop-opacity="0"/></radialGradient>
    <radialGradient id="glowB" cx="18%" cy="70%" r="55%"><stop offset="0" stop-color="#d3a43f" stop-opacity="0.25"/><stop offset="1" stop-color="#d3a43f" stop-opacity="0"/></radialGradient>
    <pattern id="grid" width="64" height="64" patternUnits="userSpaceOnUse"><path d="M64 0H0V64" fill="none" stroke="#1b443a" stroke-width="1" opacity="0.55"/></pattern>
    <filter id="shadow" x="-20%" y="-20%" width="140%" height="150%"><feDropShadow dx="0" dy="24" stdDeviation="24" flood-color="#000" flood-opacity="0.38"/></filter>
  </defs>
  <rect width="1600" height="900" fill="url(#bg)"/>
  <rect width="1600" height="900" fill="url(#glowA)"/>
  <rect width="1600" height="900" fill="url(#glowB)"/>
  <rect width="1600" height="900" fill="url(#grid)" opacity="0.72"/>
  <text x="90" y="138" fill="#f4ead2" font-family="Arial, Helvetica, sans-serif" font-size="66" font-weight="800">Orca brings PR flow</text>
  <text x="90" y="214" fill="#f4ead2" font-family="Arial, Helvetica, sans-serif" font-size="66" font-weight="800">into the agent IDE</text>
  <text x="94" y="270" fill="#a7cbbc" font-family="Arial, Helvetica, sans-serif" font-size="25">Create, review, and merge GitHub pull requests without leaving the operator workspace.</text>
  <g filter="url(#shadow)">
    <g transform="translate(120 370)"><rect width="360" height="220" rx="28" fill="#0d241f" stroke="#3c7c69" stroke-width="3"/><rect x="24" y="24" width="64" height="64" rx="14" fill="#113d34" stroke="#56c6a7" stroke-width="2"/><path d="M44 56h26M57 43v26" stroke="#d8b35d" stroke-width="6" stroke-linecap="round"/><path d="M122 44h188M122 76h132" stroke="#bde8d8" stroke-width="7" stroke-linecap="round"/><text x="32" y="160" fill="#f4ead2" font-family="Arial" font-size="31" font-weight="700">Worktree</text><text x="32" y="195" fill="#9fc7b9" font-family="Arial" font-size="22">agent changes</text></g>
    <g transform="translate(620 370)"><rect width="360" height="220" rx="28" fill="#0d241f" stroke="#3c7c69" stroke-width="3"/><rect x="24" y="24" width="64" height="64" rx="14" fill="#113d34" stroke="#56c6a7" stroke-width="2"/><path d="M43 45h28v28H43zM53 38v14M62 73v14" stroke="#d8b35d" stroke-width="5" fill="none" stroke-linecap="round"/><path d="M122 44h188M122 76h166" stroke="#bde8d8" stroke-width="7" stroke-linecap="round"/><text x="32" y="160" fill="#f4ead2" font-family="Arial" font-size="31" font-weight="700">Pull request</text><text x="32" y="195" fill="#9fc7b9" font-family="Arial" font-size="22">create + inspect</text></g>
    <g transform="translate(1120 370)"><rect width="360" height="220" rx="28" fill="#0d241f" stroke="#3c7c69" stroke-width="3"/><rect x="24" y="24" width="64" height="64" rx="14" fill="#113d34" stroke="#56c6a7" stroke-width="2"/><path d="M42 59l13 13 28-33" stroke="#d8b35d" stroke-width="7" fill="none" stroke-linecap="round" stroke-linejoin="round"/><path d="M122 44h188M122 76h132" stroke="#bde8d8" stroke-width="7" stroke-linecap="round"/><text x="32" y="160" fill="#f4ead2" font-family="Arial" font-size="31" font-weight="700">Merge</text><text x="32" y="195" fill="#9fc7b9" font-family="Arial" font-size="22">human / AI path</text></g>
  </g>
  <path d="M490 480H610" stroke="#d8b35d" stroke-width="8" stroke-linecap="round"/><path d="M610 480l-28-16v32z" fill="#d8b35d"/><path d="M990 480h120" stroke="#d8b35d" stroke-width="8" stroke-linecap="round"/><path d="M1110 480l-28-16v32z" fill="#d8b35d"/>
  <rect x="110" y="680" width="1380" height="135" rx="24" fill="#07110f" stroke="#2e6b5b" stroke-width="2"/>
  <text x="150" y="725" fill="#8fe1c2" font-family="Menlo, Consolas, monospace" font-size="25">$ orca pr create --from committed branch</text>
  <text x="150" y="761" fill="#8fe1c2" font-family="Menlo, Consolas, monospace" font-size="25">$ orca pr list  →  review details  →  merge decision</text>
  <text x="150" y="797" fill="#f4ead2" font-family="Menlo, Consolas, monospace" font-size="25">› Open Orchestrators covered the announcement</text>
  <rect x="1320" y="80" width="170" height="70" rx="18" fill="#0d241f" stroke="#d8b35d" stroke-width="2"/><text x="1346" y="125" fill="#f4ead2" font-family="Arial" font-size="31" font-weight="800">ORCA</text>
</svg>